<svg xmlns="http://www.w3.org/2000/svg" xmlns:xlink="http://www.w3.org/1999/xlink" width="500" zoomAndPan="magnify" viewBox="0 0 375 127.500001" height="170" preserveAspectRatio="xMidYMid meet" version="1.0"><defs><g/><clipPath id="53eb8a74bf"><path d="M 2.160156 0.753906 L 121.691406 0.753906 L 121.691406 126.261719 L 2.160156 126.261719 Z M 2.160156 0.753906 " clip-rule="nonzero"/></clipPath><clipPath id="ba9935ac82"><path d="M 70.824219 59.226562 L 17.472656 59.226562 C 15.402344 59.226562 13.902344 57.25 14.464844 55.257812 L 29.109375 3.042969 C 29.488281 1.695312 30.71875 0.761719 32.117188 0.761719 L 85.472656 0.761719 C 87.539062 0.761719 89.039062 2.738281 88.476562 4.730469 L 73.832031 56.945312 C 73.453125 58.292969 72.222656 59.226562 70.824219 59.226562 Z M 36.171875 98.640625 L 43.710938 71.753906 C 44.269531 69.761719 42.773438 67.785156 40.703125 67.785156 L 13.277344 67.785156 C 11.878906 67.785156 10.648438 68.71875 10.269531 70.066406 L 2.730469 96.953125 C 2.171875 98.945312 3.667969 100.921875 5.738281 100.921875 L 33.164062 100.921875 C 34.5625 100.921875 35.792969 99.988281 36.171875 98.640625 Z M 50.046875 70.066406 L 35.402344 122.28125 C 34.84375 124.273438 36.339844 126.25 38.410156 126.25 L 91.761719 126.25 C 93.160156 126.25 94.390625 125.320312 94.769531 123.96875 L 109.417969 71.753906 C 109.976562 69.761719 108.476562 67.785156 106.410156 67.785156 L 53.054688 67.785156 C 51.65625 67.785156 50.425781 68.71875 50.046875 70.066406 Z M 87.710938 28.371094 L 80.167969 55.257812 C 79.609375 57.25 81.105469 59.226562 83.175781 59.226562 L 110.601562 59.226562 C 112 59.226562 113.230469 58.292969 113.609375 56.945312 L 121.152344 30.058594 C 121.710938 28.066406 120.210938 26.089844 118.144531 26.089844 L 90.71875 26.089844 C 89.316406 26.089844 88.089844 27.023438 87.710938 28.371094 Z M 87.710938 28.371094 " clip-rule="nonzero"/></clipPath><linearGradient x1="114.296451" gradientTransform="matrix(0.250905, 0, 0, 0.250978, 2.611029, 0.76153)" y1="-47.633948" x2="358.610861" gradientUnits="userSpaceOnUse" y2="547.607246" id="b0f846e84b"><stop stop-opacity="1" stop-color="rgb(93.299866%, 72.898865%, 16.899109%)" offset="0"/><stop stop-opacity="1" stop-color="rgb(93.299866%, 72.898865%, 16.899109%)" offset="0.0625"/><stop stop-opacity="1" stop-color="rgb(93.312073%, 72.940063%, 16.952515%)" offset="0.09375"/><stop stop-opacity="1" stop-color="rgb(93.360901%, 73.092651%, 17.153931%)" offset="0.101562"/><stop stop-opacity="1" stop-color="rgb(93.431091%, 73.316956%, 17.446899%)" offset="0.109375"/><stop stop-opacity="1" stop-color="rgb(93.501282%, 73.539734%, 17.739868%)" offset="0.117187"/><stop stop-opacity="1" stop-color="rgb(93.572998%, 73.764038%, 18.032837%)" offset="0.125"/><stop stop-opacity="1" stop-color="rgb(93.643188%, 73.986816%, 18.325806%)" offset="0.132812"/><stop stop-opacity="1" stop-color="rgb(93.713379%, 74.211121%, 18.618774%)" offset="0.140625"/><stop stop-opacity="1" stop-color="rgb(93.783569%, 74.433899%, 18.911743%)" offset="0.148438"/><stop stop-opacity="1" stop-color="rgb(93.855286%, 74.656677%, 19.204712%)" offset="0.15625"/><stop stop-opacity="1" stop-color="rgb(93.925476%, 74.880981%, 19.497681%)" offset="0.164062"/><stop stop-opacity="1" stop-color="rgb(93.995667%, 75.10376%, 19.790649%)" offset="0.171875"/><stop stop-opacity="1" stop-color="rgb(94.067383%, 75.328064%, 20.083618%)" offset="0.179688"/><stop stop-opacity="1" stop-color="rgb(94.137573%, 75.550842%, 20.376587%)" offset="0.1875"/><stop stop-opacity="1" stop-color="rgb(94.207764%, 75.775146%, 20.669556%)" offset="0.195313"/><stop stop-opacity="1" stop-color="rgb(94.277954%, 75.997925%, 20.962524%)" offset="0.203125"/><stop stop-opacity="1" stop-color="rgb(94.34967%, 76.222229%, 21.255493%)" offset="0.210938"/><stop stop-opacity="1" stop-color="rgb(94.419861%, 76.445007%, 21.549988%)" offset="0.21875"/><stop stop-opacity="1" stop-color="rgb(94.490051%, 76.667786%, 21.842957%)" offset="0.226562"/><stop stop-opacity="1" stop-color="rgb(94.560242%, 76.89209%, 22.135925%)" offset="0.234375"/><stop stop-opacity="1" stop-color="rgb(94.631958%, 77.114868%, 22.428894%)" offset="0.242187"/><stop stop-opacity="1" stop-color="rgb(94.702148%, 77.339172%, 22.721863%)" offset="0.25"/><stop stop-opacity="1" stop-color="rgb(94.772339%, 77.561951%, 23.014832%)" offset="0.257812"/><stop stop-opacity="1" stop-color="rgb(94.844055%, 77.786255%, 23.3078%)" offset="0.265625"/><stop stop-opacity="1" stop-color="rgb(94.914246%, 78.009033%, 23.600769%)" offset="0.273437"/><stop stop-opacity="1" stop-color="rgb(94.984436%, 78.231812%, 23.893738%)" offset="0.281113"/><stop stop-opacity="1" stop-color="rgb(95.019531%, 78.344727%, 24.040222%)" offset="0.28125"/><stop stop-opacity="1" stop-color="rgb(95.054626%, 78.456116%, 24.186707%)" offset="0.289062"/><stop stop-opacity="1" stop-color="rgb(95.126343%, 78.678894%, 24.479675%)" offset="0.296875"/><stop stop-opacity="1" stop-color="rgb(95.196533%, 78.903198%, 24.772644%)" offset="0.304688"/><stop stop-opacity="1" stop-color="rgb(95.266724%, 79.125977%, 25.065613%)" offset="0.3125"/><stop stop-opacity="1" stop-color="rgb(95.33844%, 79.350281%, 25.358582%)" offset="0.320312"/><stop stop-opacity="1" stop-color="rgb(95.40863%, 79.573059%, 25.65155%)" offset="0.328125"/><stop stop-opacity="1" stop-color="rgb(95.478821%, 79.797363%, 25.944519%)" offset="0.335937"/><stop stop-opacity="1" stop-color="rgb(95.549011%, 80.020142%, 26.237488%)" offset="0.34375"/><stop stop-opacity="1" stop-color="rgb(95.620728%, 80.24292%, 26.530457%)" offset="0.351562"/><stop stop-opacity="1" stop-color="rgb(95.690918%, 80.467224%, 26.823425%)" offset="0.359375"/><stop stop-opacity="1" stop-color="rgb(95.761108%, 80.690002%, 27.116394%)" offset="0.367188"/><stop stop-opacity="1" stop-color="rgb(95.832825%, 80.914307%, 27.409363%)" offset="0.375"/><stop stop-opacity="1" stop-color="rgb(95.903015%, 81.137085%, 27.702332%)" offset="0.382812"/><stop stop-opacity="1" stop-color="rgb(95.973206%, 81.361389%, 27.9953%)" offset="0.390625"/><stop stop-opacity="1" stop-color="rgb(96.043396%, 81.584167%, 28.288269%)" offset="0.398437"/><stop stop-opacity="1" stop-color="rgb(96.115112%, 81.808472%, 28.581238%)" offset="0.40625"/><stop stop-opacity="1" stop-color="rgb(96.185303%, 82.03125%, 28.874207%)" offset="0.414062"/><stop stop-opacity="1" stop-color="rgb(96.255493%, 82.254028%, 29.167175%)" offset="0.421875"/><stop stop-opacity="1" stop-color="rgb(96.325684%, 82.478333%, 29.460144%)" offset="0.429688"/><stop stop-opacity="1" stop-color="rgb(96.3974%, 82.701111%, 29.753113%)" offset="0.4375"/><stop stop-opacity="1" stop-color="rgb(96.46759%, 82.925415%, 30.046082%)" offset="0.445312"/><stop stop-opacity="1" stop-color="rgb(96.537781%, 83.148193%, 30.33905%)" offset="0.453125"/><stop stop-opacity="1" stop-color="rgb(96.609497%, 83.372498%, 30.632019%)" offset="0.460937"/><stop stop-opacity="1" stop-color="rgb(96.679688%, 83.595276%, 30.924988%)" offset="0.46875"/><stop stop-opacity="1" stop-color="rgb(96.749878%, 83.818054%, 31.217957%)" offset="0.476563"/><stop stop-opacity="1" stop-color="rgb(96.820068%, 84.042358%, 31.510925%)" offset="0.484375"/><stop stop-opacity="1" stop-color="rgb(96.891785%, 84.265137%, 31.803894%)" offset="0.492188"/><stop stop-opacity="1" stop-color="rgb(96.961975%, 84.489441%, 32.098389%)" offset="0.5"/><stop stop-opacity="1" stop-color="rgb(97.032166%, 84.712219%, 32.391357%)" offset="0.507813"/><stop stop-opacity="1" stop-color="rgb(97.103882%, 84.936523%, 32.684326%)" offset="0.515625"/><stop stop-opacity="1" stop-color="rgb(97.174072%, 85.159302%, 32.977295%)" offset="0.523438"/><stop stop-opacity="1" stop-color="rgb(97.244263%, 85.383606%, 33.270264%)" offset="0.53125"/><stop stop-opacity="1" stop-color="rgb(97.314453%, 85.606384%, 33.563232%)" offset="0.539062"/><stop stop-opacity="1" stop-color="rgb(97.386169%, 85.829163%, 33.856201%)" offset="0.546875"/><stop stop-opacity="1" stop-color="rgb(97.45636%, 86.053467%, 34.14917%)" offset="0.554688"/><stop stop-opacity="1" stop-color="rgb(97.52655%, 86.276245%, 34.442139%)" offset="0.5625"/><stop stop-opacity="1" stop-color="rgb(97.598267%, 86.500549%, 34.735107%)" offset="0.570312"/><stop stop-opacity="1" stop-color="rgb(97.668457%, 86.723328%, 35.028076%)" offset="0.578125"/><stop stop-opacity="1" stop-color="rgb(97.738647%, 86.947632%, 35.321045%)" offset="0.585938"/><stop stop-opacity="1" stop-color="rgb(97.808838%, 87.17041%, 35.614014%)" offset="0.59375"/><stop stop-opacity="1" stop-color="rgb(97.880554%, 87.393188%, 35.906982%)" offset="0.601562"/><stop stop-opacity="1" stop-color="rgb(97.950745%, 87.617493%, 36.199951%)" offset="0.609375"/><stop stop-opacity="1" stop-color="rgb(98.020935%, 87.840271%, 36.49292%)" offset="0.617188"/><stop stop-opacity="1" stop-color="rgb(98.091125%, 88.064575%, 36.785889%)" offset="0.625"/><stop stop-opacity="1" stop-color="rgb(98.162842%, 88.287354%, 37.078857%)" offset="0.632812"/><stop stop-opacity="1" stop-color="rgb(98.233032%, 88.511658%, 37.371826%)" offset="0.640625"/><stop stop-opacity="1" stop-color="rgb(98.303223%, 88.734436%, 37.664795%)" offset="0.648437"/><stop stop-opacity="1" stop-color="rgb(98.374939%, 88.95874%, 37.957764%)" offset="0.65625"/><stop stop-opacity="1" stop-color="rgb(98.445129%, 89.181519%, 38.250732%)" offset="0.664062"/><stop stop-opacity="1" stop-color="rgb(98.51532%, 89.404297%, 38.543701%)" offset="0.671875"/><stop stop-opacity="1" stop-color="rgb(98.58551%, 89.628601%, 38.83667%)" offset="0.679687"/><stop stop-opacity="1" stop-color="rgb(98.657227%, 89.851379%, 39.129639%)" offset="0.6875"/><stop stop-opacity="1" stop-color="rgb(98.727417%, 90.075684%, 39.422607%)" offset="0.695312"/><stop stop-opacity="1" stop-color="rgb(98.797607%, 90.298462%, 39.715576%)" offset="0.703125"/><stop stop-opacity="1" stop-color="rgb(98.869324%, 90.522766%, 40.008545%)" offset="0.710938"/><stop stop-opacity="1" stop-color="rgb(98.939514%, 90.745544%, 40.301514%)" offset="0.71875"/><stop stop-opacity="1" stop-color="rgb(99.009705%, 90.968323%, 40.594482%)" offset="0.718887"/><stop stop-opacity="1" stop-color="rgb(99.0448%, 91.081238%, 40.740967%)" offset="0.726562"/><stop stop-opacity="1" stop-color="rgb(99.079895%, 91.192627%, 40.887451%)" offset="0.734375"/><stop stop-opacity="1" stop-color="rgb(99.151611%, 91.415405%, 41.18042%)" offset="0.742188"/><stop stop-opacity="1" stop-color="rgb(99.221802%, 91.639709%, 41.473389%)" offset="0.75"/><stop stop-opacity="1" stop-color="rgb(99.291992%, 91.862488%, 41.766357%)" offset="0.757812"/><stop stop-opacity="1" stop-color="rgb(99.363708%, 92.086792%, 42.059326%)" offset="0.765625"/><stop stop-opacity="1" stop-color="rgb(99.433899%, 92.30957%, 42.352295%)" offset="0.773437"/><stop stop-opacity="1" stop-color="rgb(99.504089%, 92.533875%, 42.64679%)" offset="0.78125"/><stop stop-opacity="1" stop-color="rgb(99.57428%, 92.756653%, 42.939758%)" offset="0.789062"/><stop stop-opacity="1" stop-color="rgb(99.645996%, 92.979431%, 43.232727%)" offset="0.796875"/><stop stop-opacity="1" stop-color="rgb(99.716187%, 93.203735%, 43.525696%)" offset="0.804687"/><stop stop-opacity="1" stop-color="rgb(99.786377%, 93.426514%, 43.818665%)" offset="0.8125"/><stop stop-opacity="1" stop-color="rgb(99.856567%, 93.650818%, 44.111633%)" offset="0.820312"/><stop stop-opacity="1" stop-color="rgb(99.928284%, 93.873596%, 44.404602%)" offset="0.828125"/><stop stop-opacity="1" stop-color="rgb(99.981689%, 94.042969%, 44.624329%)" offset="0.84375"/><stop stop-opacity="1" stop-color="rgb(100%, 94.099426%, 44.699097%)" offset="0.875"/><stop stop-opacity="1" stop-color="rgb(100%, 94.099426%, 44.699097%)" offset="1"/></linearGradient></defs><g fill="#000000" fill-opacity="1"><g transform="translate(127.81052, 52.294925)"><g><path d="M 18.949219 -13.238281 C 21.882812 -13.855469 24.238281 -15.554688 24.238281 -19.335938 C 24.238281 -22.808594 22.035156 -25.664062 16.558594 -25.664062 L 2.238281 -25.664062 L 2.238281 0 L 16.285156 0 C 21.765625 0 24.585938 -2.664062 24.585938 -6.984375 C 24.585938 -11.078125 22.152344 -12.734375 18.949219 -13.238281 Z M 14.820312 -21.226562 C 17.25 -21.226562 18.101562 -20.144531 18.101562 -18.175781 C 18.101562 -16.324219 17.175781 -15.089844 14.628906 -15.089844 L 8.105469 -15.089844 L 8.105469 -21.226562 Z M 14.972656 -4.476562 L 8.105469 -4.476562 L 8.105469 -11.152344 L 14.628906 -11.152344 C 17.445312 -11.152344 18.488281 -9.839844 18.488281 -7.796875 C 18.488281 -5.90625 17.597656 -4.476562 14.972656 -4.476562 Z M 14.972656 -4.476562 "/></g></g></g><g fill="#000000" fill-opacity="1"><g transform="translate(153.936527, 52.294925)"><g><path d="M 8.105469 0.5 C 12.042969 0.5 14.355469 -1.464844 15.246094 -4.128906 C 15.246094 -2.546875 15.359375 -1.273438 15.554688 0 L 20.53125 0 C 20.339844 -1.660156 20.222656 -3.203125 20.222656 -5.015625 L 20.222656 -13.351562 C 20.222656 -17.445312 17.367188 -19.953125 11.5 -19.953125 C 5.632812 -19.953125 2.238281 -17.136719 2.085938 -13.007812 L 7.679688 -13.007812 C 7.757812 -14.972656 8.992188 -16.015625 11.617188 -16.015625 C 14.203125 -16.015625 14.972656 -15.128906 14.972656 -13.777344 C 14.972656 -12.660156 14.355469 -12.15625 12.582031 -11.847656 L 8.027344 -11.078125 C 3.050781 -10.226562 1.699219 -8.21875 1.699219 -5.132812 C 1.699219 -1.660156 4.207031 0.5 8.105469 0.5 Z M 10.035156 -3.394531 C 8.492188 -3.394531 7.332031 -4.167969 7.332031 -5.710938 C 7.332031 -7.179688 8.144531 -7.910156 10.1875 -8.414062 L 11.808594 -8.800781 C 13.007812 -9.070312 13.972656 -9.339844 14.972656 -10.035156 L 14.972656 -9.183594 C 14.972656 -5.597656 13.042969 -3.394531 10.035156 -3.394531 Z M 10.035156 -3.394531 "/></g></g></g><g fill="#000000" fill-opacity="1"><g transform="translate(176.280626, 52.294925)"><g><path d="M 14.898438 -19.914062 C 11.386719 -19.914062 9.183594 -18.140625 7.949219 -15.515625 L 7.949219 -19.296875 L 2.238281 -19.296875 L 2.238281 0 L 7.949219 0 L 7.949219 -8.761719 C 7.949219 -13.351562 9.648438 -15.28125 12.699219 -15.28125 C 15.050781 -15.28125 16.363281 -14.046875 16.363281 -10.960938 L 16.363281 0 L 22.074219 0 L 22.074219 -11.847656 C 22.074219 -16.902344 19.953125 -19.914062 14.898438 -19.914062 Z M 14.898438 -19.914062 "/></g></g></g><g fill="#000000" fill-opacity="1"><g transform="translate(200.322722, 52.294925)"><g><path d="M 1.429688 -9.648438 C 1.429688 -4.246094 4.59375 0.617188 12.117188 0.617188 C 18.910156 0.617188 22.113281 -3.433594 22.230469 -7.949219 L 16.671875 -7.949219 C 16.441406 -5.632812 15.089844 -3.859375 12.042969 -3.859375 C 8.953125 -3.859375 7.179688 -5.289062 7.179688 -9.648438 C 7.179688 -13.972656 9.03125 -15.4375 12.117188 -15.4375 C 15.050781 -15.4375 16.363281 -13.855469 16.558594 -11.460938 L 22.113281 -11.460938 C 21.960938 -16.210938 18.679688 -19.914062 12.003906 -19.914062 C 4.515625 -19.914062 1.429688 -15.050781 1.429688 -9.648438 Z M 1.429688 -9.648438 "/></g></g></g><g fill="#000000" fill-opacity="1"><g transform="translate(223.824544, 52.294925)"><g><path d="M 12.117188 0.617188 C 19.835938 0.617188 22.808594 -4.324219 22.808594 -9.6875 C 22.808594 -14.972656 19.835938 -19.914062 12.117188 -19.914062 C 4.4375 -19.914062 1.429688 -15.011719 1.429688 -9.6875 C 1.429688 -4.285156 4.4375 0.617188 12.117188 0.617188 Z M 7.179688 -9.648438 C 7.179688 -13.933594 8.644531 -15.4375 12.117188 -15.4375 C 15.628906 -15.4375 17.097656 -13.933594 17.097656 -9.648438 C 17.097656 -5.363281 15.628906 -3.859375 12.117188 -3.859375 C 8.644531 -3.859375 7.179688 -5.363281 7.179688 -9.648438 Z M 7.179688 -9.648438 "/></g></g></g><g fill="#000000" fill-opacity="1"><g transform="translate(127.81052, 94.130861)"><g><path d="M 13.972656 0.65625 C 19.414062 0.65625 22.074219 -1.890625 23.117188 -4.941406 L 23.117188 0 L 28.136719 0 L 28.136719 -13.664062 L 13.390625 -13.664062 L 13.390625 -9.839844 L 22.539062 -9.839844 C 22.074219 -6.636719 20.339844 -3.976562 15.246094 -3.976562 C 10.074219 -3.976562 7.875 -7.023438 7.875 -12.8125 C 7.875 -18.910156 10.382812 -21.726562 15.515625 -21.726562 C 19.796875 -21.726562 21.882812 -19.914062 22.230469 -16.980469 L 28.171875 -16.980469 C 27.710938 -22.421875 24.121094 -26.320312 15.554688 -26.320312 C 5.867188 -26.320312 1.738281 -20.339844 1.738281 -12.851562 C 1.738281 -5.402344 5.519531 0.65625 13.972656 0.65625 Z M 13.972656 0.65625 "/></g></g></g><g fill="#000000" fill-opacity="1"><g transform="translate(158.335881, 94.130861)"><g><path d="M 12.117188 0.617188 C 19.835938 0.617188 22.808594 -4.324219 22.808594 -9.6875 C 22.808594 -14.972656 19.835938 -19.914062 12.117188 -19.914062 C 4.4375 -19.914062 1.429688 -15.011719 1.429688 -9.6875 C 1.429688 -4.285156 4.4375 0.617188 12.117188 0.617188 Z M 7.179688 -9.648438 C 7.179688 -13.933594 8.644531 -15.4375 12.117188 -15.4375 C 15.628906 -15.4375 17.097656 -13.933594 17.097656 -9.648438 C 17.097656 -5.363281 15.628906 -3.859375 12.117188 -3.859375 C 8.644531 -3.859375 7.179688 -5.363281 7.179688 -9.648438 Z M 7.179688 -9.648438 "/></g></g></g><g fill="#000000" fill-opacity="1"><g transform="translate(182.570934, 94.130861)"><g><path d="M 2.238281 0 L 7.949219 0 L 7.949219 -27.015625 L 2.238281 -27.015625 Z M 2.238281 0 "/></g></g></g><g fill="#000000" fill-opacity="1"><g transform="translate(192.720322, 94.130861)"><g><path d="M 17.210938 -27.015625 L 17.210938 -16.402344 C 15.863281 -18.601562 13.625 -19.914062 10.304688 -19.914062 C 4.015625 -19.914062 1.429688 -15.167969 1.429688 -9.6875 C 1.429688 -4.089844 4.015625 0.617188 10.304688 0.617188 C 13.625 0.617188 15.863281 -0.65625 17.210938 -2.855469 L 17.210938 0 L 22.925781 0 L 22.925781 -27.015625 Z M 12.078125 -3.859375 C 8.453125 -3.859375 7.140625 -5.671875 7.140625 -9.648438 C 7.140625 -13.664062 8.453125 -15.4375 12.078125 -15.4375 C 15.667969 -15.4375 17.210938 -13.585938 17.210938 -9.648438 C 17.210938 -5.710938 15.667969 -3.859375 12.078125 -3.859375 Z M 12.078125 -3.859375 "/></g></g></g><g fill="#000000" fill-opacity="1"><g transform="translate(217.765781, 94.130861)"><g><path d="M 11.925781 -3.320312 C 9.183594 -3.320312 7.371094 -4.515625 7.023438 -8.183594 L 21.726562 -8.183594 C 21.804688 -8.605469 21.804688 -9.148438 21.804688 -9.726562 C 21.804688 -15.167969 19.105469 -19.914062 11.808594 -19.914062 C 4.667969 -19.914062 1.429688 -15.28125 1.429688 -9.6875 C 1.429688 -4.246094 4.285156 0.617188 11.808594 0.617188 C 18.757812 0.617188 21.226562 -2.738281 21.765625 -5.828125 L 16.285156 -5.828125 C 15.746094 -4.398438 14.433594 -3.320312 11.925781 -3.320312 Z M 11.886719 -16.054688 C 14.742188 -16.054688 16.171875 -14.589844 16.363281 -11.65625 L 7.0625 -11.65625 C 7.527344 -14.9375 9.148438 -16.054688 11.886719 -16.054688 Z M 11.886719 -16.054688 "/></g></g></g><g fill="#000000" fill-opacity="1"><g transform="translate(240.920286, 94.130861)"><g><path d="M 14.898438 -19.914062 C 11.386719 -19.914062 9.183594 -18.140625 7.949219 -15.515625 L 7.949219 -19.296875 L 2.238281 -19.296875 L 2.238281 0 L 7.949219 0 L 7.949219 -8.761719 C 7.949219 -13.351562 9.648438 -15.28125 12.699219 -15.28125 C 15.050781 -15.28125 16.363281 -14.046875 16.363281 -10.960938 L 16.363281 0 L 22.074219 0 L 22.074219 -11.847656 C 22.074219 -16.902344 19.953125 -19.914062 14.898438 -19.914062 Z M 14.898438 -19.914062 "/></g></g></g><g fill="#000000" fill-opacity="1"><g transform="translate(264.962381, 94.130861)"><g/></g></g><g fill="#000000" fill-opacity="1"><g transform="translate(274.725866, 94.130861)"><g><path d="M 13.972656 0.65625 C 19.414062 0.65625 22.074219 -1.890625 23.117188 -4.941406 L 23.117188 0 L 28.136719 0 L 28.136719 -13.664062 L 13.390625 -13.664062 L 13.390625 -9.839844 L 22.539062 -9.839844 C 22.074219 -6.636719 20.339844 -3.976562 15.246094 -3.976562 C 10.074219 -3.976562 7.875 -7.023438 7.875 -12.8125 C 7.875 -18.910156 10.382812 -21.726562 15.515625 -21.726562 C 19.796875 -21.726562 21.882812 -19.914062 22.230469 -16.980469 L 28.171875 -16.980469 C 27.710938 -22.421875 24.121094 -26.320312 15.554688 -26.320312 C 5.867188 -26.320312 1.738281 -20.339844 1.738281 -12.851562 C 1.738281 -5.402344 5.519531 0.65625 13.972656 0.65625 Z M 13.972656 0.65625 "/></g></g></g><g fill="#000000" fill-opacity="1"><g transform="translate(305.251227, 94.130861)"><g><path d="M 8.105469 0.5 C 12.042969 0.5 14.355469 -1.464844 15.246094 -4.128906 C 15.246094 -2.546875 15.359375 -1.273438 15.554688 0 L 20.53125 0 C 20.339844 -1.660156 20.222656 -3.203125 20.222656 -5.015625 L 20.222656 -13.351562 C 20.222656 -17.445312 17.367188 -19.953125 11.5 -19.953125 C 5.632812 -19.953125 2.238281 -17.136719 2.085938 -13.007812 L 7.679688 -13.007812 C 7.757812 -14.972656 8.992188 -16.015625 11.617188 -16.015625 C 14.203125 -16.015625 14.972656 -15.128906 14.972656 -13.777344 C 14.972656 -12.660156 14.355469 -12.15625 12.582031 -11.847656 L 8.027344 -11.078125 C 3.050781 -10.226562 1.699219 -8.21875 1.699219 -5.132812 C 1.699219 -1.660156 4.207031 0.5 8.105469 0.5 Z M 10.035156 -3.394531 C 8.492188 -3.394531 7.332031 -4.167969 7.332031 -5.710938 C 7.332031 -7.179688 8.144531 -7.910156 10.1875 -8.414062 L 11.808594 -8.800781 C 13.007812 -9.070312 13.972656 -9.339844 14.972656 -10.035156 L 14.972656 -9.183594 C 14.972656 -5.597656 13.042969 -3.394531 10.035156 -3.394531 Z M 10.035156 -3.394531 "/></g></g></g><g fill="#000000" fill-opacity="1"><g transform="translate(327.595327, 94.130861)"><g><path d="M 11.039062 0 L 14.664062 0 L 14.664062 -4.554688 L 9.648438 -4.554688 L 9.648438 -14.972656 L 15.207031 -14.972656 L 15.207031 -19.296875 L 9.648438 -19.296875 L 9.648438 -23.890625 L 6.753906 -23.890625 L 4.398438 -19.335938 L 0.425781 -17.714844 L 0.425781 -14.972656 L 3.9375 -14.972656 L 3.9375 -6.945312 C 3.9375 -2.355469 5.558594 0 11.039062 0 Z M 11.039062 0 "/></g></g></g><g fill="#000000" fill-opacity="1"><g transform="translate(343.803478, 94.130861)"><g><path d="M 11.925781 -3.320312 C 9.183594 -3.320312 7.371094 -4.515625 7.023438 -8.183594 L 21.726562 -8.183594 C 21.804688 -8.605469 21.804688 -9.148438 21.804688 -9.726562 C 21.804688 -15.167969 19.105469 -19.914062 11.808594 -19.914062 C 4.667969 -19.914062 1.429688 -15.28125 1.429688 -9.6875 C 1.429688 -4.246094 4.285156 0.617188 11.808594 0.617188 C 18.757812 0.617188 21.226562 -2.738281 21.765625 -5.828125 L 16.285156 -5.828125 C 15.746094 -4.398438 14.433594 -3.320312 11.925781 -3.320312 Z M 11.886719 -16.054688 C 14.742188 -16.054688 16.171875 -14.589844 16.363281 -11.65625 L 7.0625 -11.65625 C 7.527344 -14.9375 9.148438 -16.054688 11.886719 -16.054688 Z M 11.886719 -16.054688 "/></g></g></g><g clip-path="url(#53eb8a74bf)"><g clip-path="url(#ba9935ac82)"><path fill="url(#b0f846e84b)" d="M 2.171875 0.761719 L 2.171875 126.25 L 121.691406 126.25 L 121.691406 0.761719 Z M 2.171875 0.761719 " fill-rule="nonzero"/></g></g></svg>